<?xml version="1.0" standalone="no"?><!DOCTYPE svg PUBLIC "-//W3C//DTD SVG 1.1//EN" "http://www.w3.org/Graphics/SVG/1.1/DTD/svg11.dtd"><svg class="icon" width="16px" height="16.00px" viewBox="0 0 1024 1024" version="1.1" xmlns="http://www.w3.org/2000/svg"><path d="M809.3696 302.0288H215.552V204.6464c0-73.5232 59.5968-133.12 133.12-133.12h327.5776c73.5232 0 133.12 59.5968 133.12 133.12v97.3824z" fill="#95C9FC" /><path d="M864.1536 717.3632H160.768c-50.8928 0-92.16-41.2672-92.16-92.16V430.0288c0-73.5232 59.5968-133.12 133.12-133.12h621.4656c73.5232 0 133.12 59.5968 133.12 133.12v195.1744c0 50.8928-41.2672 92.16-92.16 92.16z" fill="#80B7F9" /><path d="M726.9376 949.0432H297.9328c-45.2608 0-81.92-36.6592-81.92-81.92v-211.3536c0-45.2608 36.6592-81.92 81.92-81.92h429.0048c45.2608 0 81.92 36.6592 81.92 81.92v211.3536c0 45.2608-36.6592 81.92-81.92 81.92z" fill="#80B7F9" /><path d="M808.8576 717.3632v-61.5936c0-45.2608-36.6592-81.92-81.92-81.92H297.9328c-45.2608 0-81.92 36.6592-81.92 81.92v61.5936h592.8448z" fill="#3E8BF8" /><path d="M797.7984 464.2304h-102.1952c-22.6304 0-40.96-18.3296-40.96-40.96s18.3296-40.96 40.96-40.96h102.1952c22.6304 0 40.96 18.3296 40.96 40.96s-18.3296 40.96-40.96 40.96zM604.9792 831.0272h-271.36c-22.6304 0-40.96-18.3296-40.96-40.96s18.3296-40.96 40.96-40.96h271.4112c22.6304 0 40.96 18.3296 40.96 40.96s-18.3808 40.96-41.0112 40.96z" fill="#FFFFFF" /></svg>