<?xml version="1.0" standalone="no"?><!DOCTYPE svg PUBLIC "-//W3C//DTD SVG 1.1//EN" "http://www.w3.org/Graphics/SVG/1.1/DTD/svg11.dtd"><svg class="icon" width="16px" height="16.00px" viewBox="0 0 1024 1024" version="1.1" xmlns="http://www.w3.org/2000/svg"><path d="M235.6736 86.272h551.5264c17.408 0 33.3824 9.4208 41.8304 24.6272l102.9632 185.6a157.98272 157.98272 0 0 1 15.9744 80.2816c-5.0176 79.0016-69.5808 143.0528-148.6336 147.456-63.8976 3.584-120.1152-30.8736-148.1728-82.7904-26.7264 49.4592-79.0016 83.0464-139.1104 83.0464-60.5696 0-113.1008-34.048-139.6224-84.0704-27.8016 52.3776-84.1216 87.2448-148.2752 83.8656-79.5136-4.2496-144.384-68.7104-149.0432-148.1728-1.4336-24.4736 2.6624-47.8208 11.2128-68.9152l107.3664-195.9936a47.81056 47.81056 0 0 1 41.984-24.9344z" fill="#FFD05C" /><path d="M877.9264 336.5376H145.152v476.0576c0 73.5232 59.5968 133.12 133.12 133.12h466.5344c73.5232 0 133.12-59.5968 133.12-133.12V336.5376z" fill="#FFD05C" /><path d="M145.152 497.664c22.8864 15.4112 49.9712 25.0368 79.0016 26.5728 64.1536 3.4304 120.5248-31.488 148.2752-83.8144 26.5216 50.0224 79.104 84.0704 139.6224 84.0704 60.1088 0 112.384-33.5872 139.1104-83.0464 28.0064 51.9168 84.2752 86.3232 148.1728 82.7904 28.8768-1.5872 55.808-11.2128 78.592-26.5216V336.5376H145.152V497.664zM636.672 945.4592H386.4064v-204.8512c0-41.1648 33.3824-74.5472 74.5472-74.5472h101.1712c41.1648 0 74.5472 33.3824 74.5472 74.5472v204.8512z" fill="#FCA235" /></svg>