<?xml version="1.0" standalone="no"?><!DOCTYPE svg PUBLIC "-//W3C//DTD SVG 1.1//EN" "http://www.w3.org/Graphics/SVG/1.1/DTD/svg11.dtd"><svg class="icon" width="16px" height="16.00px" viewBox="0 0 1024 1024" version="1.1" xmlns="http://www.w3.org/2000/svg"><path d="M758.8864 946.4832H265.6768c-73.5232 0-133.12-59.5968-133.12-133.12V308.6336c0-73.5232 59.5968-133.12 133.12-133.12h493.2096c73.5232 0 133.12 59.5968 133.12 133.12v504.7296c0 73.5232-59.5968 133.12-133.12 133.12z" fill="#80B7F9" /><path d="M639.7952 306.176h-254.976c-54.7328 0-99.1232-44.3904-99.1232-99.1232V170.496c0-54.7328 44.3904-99.1232 99.1232-99.1232h254.976c54.7328 0 99.1232 44.3904 99.1232 99.1232v36.5568c-0.0512 54.7328-44.3904 99.1232-99.1232 99.1232z" fill="#80B7F9" /><path d="M285.696 175.5136v30.9248c0 55.0912 44.6464 99.7376 99.7376 99.7376h253.696c55.0912 0 99.7376-44.6464 99.7376-99.7376v-30.9248H285.696z" fill="#3E8BF8" /><path d="M497.1008 482.0992H322.56c-22.6304 0-40.96-18.3296-40.96-40.96s18.3296-40.96 40.96-40.96h174.5408c22.6304 0 40.96 18.3296 40.96 40.96s-18.3808 40.96-40.96 40.96zM705.1264 648.5504H322.56c-22.6304 0-40.96-18.3296-40.96-40.96s18.3296-40.96 40.96-40.96h382.5664c22.6304 0 40.96 18.3296 40.96 40.96s-18.3296 40.96-40.96 40.96zM705.1264 814.9504H322.56c-22.6304 0-40.96-18.3296-40.96-40.96s18.3296-40.96 40.96-40.96h382.5664c22.6304 0 40.96 18.3296 40.96 40.96s-18.3296 40.96-40.96 40.96z" fill="#F7F8F8" /></svg>